<svg width="1000" height="142" viewBox="0 0 1000 142" fill="currentColor" xmlns="http://www.w3.org/2000/svg">
<path d="M635.943 9.33248L661.511 71.349H609.91L635.943 9.33248ZM606.698 79.3093H664.734L676.977 108.565H686.625L640.54 0.150055H631.812L584.796 108.565H594.444L606.698 79.3093Z" fill="#A09ABE"/>
<path d="M727.692 33.4836H707.326V0.0635071H698.901V33.4836H684.051V40.5246H699.052V90.1789C699.052 104.12 707.78 108.565 716.508 108.565C720.802 108.565 724.48 107.797 727.843 106.564L727.389 99.3721C724.782 100.594 721.57 101.362 718.661 101.362C711.923 101.362 707.326 98.4528 707.326 88.1888V40.5246H727.692L727.692 33.4836Z" fill="#A09ABE"/>
<path d="M743.093 108.674H751.518V70.3864C751.518 50.4857 762.691 40.3732 774.026 40.3732C788.724 40.3732 792.25 51.5565 792.25 64.719V108.674H800.664V69.4671C800.664 53.698 808.019 40.3732 822.869 40.3732C837.264 40.3732 842.315 52.1621 842.315 66.2548V108.674H850.589V63.194C850.589 46.3434 842.477 33.4836 824.102 33.4836C812.313 33.4836 803.119 39.6053 798.523 50.4857H798.22C794.24 38.5345 786.128 33.4836 775.399 33.4836C765.297 33.4836 755.498 39.7675 751.367 49.5664H751.053C751.053 45.7377 750.75 37.4638 750.447 33.4836H742.476C742.941 38.2317 743.093 47.7278 743.093 51.7079L743.093 108.674Z" fill="#A09ABE"/>
<path d="M930.127 71.0029C930.127 87.9941 918.954 101.168 901.033 101.168C883.274 101.168 872.091 87.9941 872.091 71.0029C872.091 54.0008 883.274 40.676 901.033 40.676C918.954 40.676 930.127 54.0008 930.127 71.0029V71.0029ZM938.704 71.0029C938.704 49.2528 923.237 33.4836 901.033 33.4836C878.98 33.4836 863.525 49.2528 863.525 71.0029C863.525 92.5908 878.98 108.674 901.033 108.674C923.237 108.674 938.704 92.5908 938.704 71.0029" fill="#A09ABE"/>
<path d="M998.622 45.662C994.025 37.8531 984.994 33.5594 974.579 33.5594C962.173 33.5594 950.233 39.6918 950.233 53.4708C950.233 79.9582 991.722 68.1692 991.722 87.6156C991.722 97.5659 982.993 101.546 974.114 101.546C965.386 101.546 957.728 96.9603 953.597 90.525L947.01 95.273C953.142 104.304 963.396 108.598 974.114 108.598C987.136 108.598 999.996 102.163 999.996 86.9991C999.996 75.3616 991.267 69.8564 976.104 66.482C964.315 63.8862 958.193 61.1283 958.193 52.8543C958.193 43.9748 966.77 40.4489 974.276 40.4489C982.236 40.4489 988.661 44.2776 992.187 50.2586L998.622 45.662Z" fill="#A09ABE"/>
<path d="M-0.00454712 108.695H16.0133C45.9184 108.695 70.2967 84.3168 70.2967 54.4118C70.2967 24.5067 45.9184 0.117584 16.0133 0.117584H-0.00454712V108.695Z" fill="#A09ABE"/>
<path d="M154.431 0.117584H138.413C108.508 0.117584 84.1298 24.5067 84.1298 54.4118C84.1298 84.3168 108.508 108.695 138.413 108.695H154.431V0.117584Z" fill="#A09ABE"/>
<path d="M264.35 54.4118C264.35 33.5702 247.358 16.5789 226.517 16.5789H203.772V92.2339H226.517C247.358 92.2339 264.35 75.2426 264.35 54.4118V54.4118ZM280.811 54.4118C280.811 84.3385 256.454 108.695 226.528 108.695H187.31V0.117584H226.528C256.454 0.117584 280.811 24.4743 280.811 54.4118" fill="#A09ABE"/>
<path d="M349.458 71.0353C349.458 58.5974 339.226 48.3551 326.777 48.3551C314.329 48.3551 304.097 58.4568 304.097 71.0353C304.097 83.4841 314.188 93.7264 326.777 93.7264C339.226 93.7264 349.458 83.6247 349.458 71.0353V71.0353ZM364.502 71.0676C364.502 91.8119 347.63 108.684 326.885 108.684C306.141 108.684 289.269 91.8119 289.269 71.0676C289.269 50.3233 306.141 33.451 326.885 33.451C347.63 33.451 364.502 50.3233 364.502 71.0676Z" fill="#A09ABE"/>
<path d="M375.047 108.684H391.508V-0.00137329H375.047V108.684Z" fill="#A09ABE"/>
<path d="M466.017 71.0461C466.017 58.5974 455.786 48.3659 443.337 48.3659C433.365 48.3659 424.842 54.8444 421.825 63.8862C421.078 66.1359 420.657 68.5369 420.657 71.0461C420.657 73.5445 421.078 75.9348 421.825 78.1844C424.821 87.1722 433.278 93.7264 443.337 93.7264C455.786 93.7264 466.017 83.6247 466.017 71.0461ZM480.953 71.0461C480.953 91.7904 464.081 108.663 443.337 108.663C435.344 108.663 427.925 106.154 421.825 101.881V108.684H405.331V-0.00137329H421.825V40.2109C427.925 35.9388 435.344 33.4296 443.337 33.4296C464.081 33.4296 480.953 50.3019 480.953 71.0461" fill="#A09ABE"/>
<path d="M541.218 33.5486L519.781 81.7536L498.334 33.5486H480.359L510.783 101.946C510.783 101.946 503.342 118.71 503.331 118.743C501.352 123.166 496.149 125.167 491.736 123.199L489.379 122.15L482.738 137.054L482.759 137.075L488.459 139.617C499.167 144.386 511.788 139.53 516.569 128.801C516.612 128.715 555.537 41.725 559.193 33.5485L541.218 33.5486Z" fill="#A09ABE"/>
</svg>
